# xmcd CD database file
#
# Track frame offsets:
#	150
#	16212
#	31445
#	46062
#	57680
#	70728
#	84810
#	97372
#	110707
#	121361
#	132586
#	147613
#	165826
#	181621
#	192074
#	202962
#	218290
#	238980
#	254314
#	268032
#	282898
#	296028
#	306814
#	319353
#	332697
#
# Disc length: 4589 seconds
#
# Revision: 0
# Processed by: cddbd v1.5.1PL2 Copyright (c) Steve Scherf et al.
# Submitted via: CDex 1.51
#
DISCID=7611eb19
DTITLE=Various Artist - Winter Wonderland CD3
DYEAR=2005
DGENRE=Jazz
TTITLE0=Three Degrees - Most beautiful night of the year
TTITLE1=Bing Crosby and The Andrew Sisters - The twelve days of christmas
TTITLE2=Nat King Cole - The little christmas tree
TTITLE3=Bing Crosby - The first Noel
TTITLE4=Louis Armstrong - Christmas in New Orleans
TTITLE5=Vaughn Monroe - Let it snow let it snow let it snow
TTITLE6=Judy Garland - Have yourself a merry little christmas
TTITLE7=Frank Sinatra - Christmas dreaming (a little early this year)
TTITLE8=Dinah Shore and Buddy Clark - Baby its cold outside
TTITLE9=Eddy Arnold - C-h-r-i-s-t-m-a-s
TTITLE10=Bing Crosby - Good king Wenceslas - we three kings - angels we have heard on high
TTITLE11=103rd Street Gospel Choir with Pat Lewis - It isnt christmas (if youre not there)
TTITLE12=Tokens - Little drummer boy
TTITLE13=Nat King Cole with The Pussy Cats - Frosty the snowman
TTITLE14=Three Degrees - Marys boy child
TTITLE15=Bessie Smith - At the christmas ball
TTITLE16=Stanley Holloway - Sams christmas pudding
TTITLE17=Jack Teagarden and Johnny Mercer - Christmas night in Harlem
TTITLE18=Bing Crosby - That christmas feeling
TTITLE19=Sonny Till and The Orioles - (Its gonna be a) Lonely christmas
TTITLE20=Bing Crosby and The Andrew Sisters - Merry christmas in Hawaii
TTITLE21=The Crickets - Deck the halls
TTITLE22=Bing Crosby - Its beginning to look a lot like christmas
TTITLE23=Fats Waller - Swingin them jingle bells
TTITLE24=Tex Ritter - Christmas carols by the old corral
EXTD=YEAR: 2005
EXTT0=
EXTT1=
EXTT2=
EXTT3=
EXTT4=
EXTT5=
EXTT6=
EXTT7=
EXTT8=
EXTT9=
EXTT10=
EXTT11=
EXTT12=
EXTT13=
EXTT14=
EXTT15=
EXTT16=
EXTT17=
EXTT18=
EXTT19=
EXTT20=
EXTT21=
EXTT22=
EXTT23=
EXTT24=
PLAYORDER=
